<svg xmlns="http://www.w3.org/2000/svg" data-name="Layer 4" viewBox="0 0 32 40" x="0px" y="0px" width="15px" height="15px"><title>camera_interface_ui_photo</title><path d="M30.706,19.721a1,1,0,0,0-1.042-.234A13.423,13.423,0,0,1,12.513,2.335a1,1,0,0,0-1.276-1.278A15.214,15.214,0,0,0,5.51,4.68,15.422,15.422,0,0,0,27.32,26.49a15.213,15.213,0,0,0,3.623-5.728A1,1,0,0,0,30.706,19.721Zm-4.8,5.355A13.422,13.422,0,1,1,10.047,3.764a15.514,15.514,0,0,0,4.2,13.985,15.51,15.51,0,0,0,13.985,4.2A13.357,13.357,0,0,1,25.906,25.076Z"/><text x="0" y="47" fill="#000000" font-size="5px" font-weight="bold" font-family="'Helvetica Neue', Helvetica, Arial-Unicode, Arial, Sans-serif">Created by Adriansyah</text><text x="0" y="52" fill="#000000" font-size="5px" font-weight="bold" font-family="'Helvetica Neue', Helvetica, Arial-Unicode, Arial, Sans-serif">from the Noun Project</text></svg>
